<svg xmlns="http://www.w3.org/2000/svg" width="24" height="24"><path d="M12.026 0C5.385 0 0 5.385 0 12.026c0 6.644 5.385 12.026 12.026 12.026 6.644 0 12.026-5.383 12.026-12.026C24.053 5.385 18.67 0 12.026 0zm0 22.449c-5.748 0-10.424-4.675-10.424-10.423S6.278 1.603 12.026 1.603s10.423 4.676 10.423 10.424-4.675 10.422-10.423 10.422z"/><path d="M18.439 11.224h-5.61v-5.61a.803.803 0 1 0-1.606 0v5.613h-5.61a.803.803 0 1 0 0 1.605h5.613v5.613a.803.803 0 1 0 1.605 0V12.83h5.613a.805.805 0 0 0 .803-.803.812.812 0 0 0-.808-.803z"/></svg>
